<?xml version="1.0" encoding="iso-8859-1"?>
<!-- Generator: Adobe Illustrator 18.0.0, SVG Export Plug-In . SVG Version: 6.00 Build 0)  -->
<!DOCTYPE svg PUBLIC "-//W3C//DTD SVG 1.1//EN" "http://www.w3.org/Graphics/SVG/1.1/DTD/svg11.dtd">
<svg version="1.1" id="Capa_1" xmlns="http://www.w3.org/2000/svg" xmlns:xlink="http://www.w3.org/1999/xlink" x="0px" y="0px"
	 viewBox="0 0 297 297" style="enable-background:new 0 0 297 297;" xml:space="preserve">
<g>
	<path d="M150.079,100.075c-0.002,0-0.004,0-0.006,0l-30.039,0.018l0.014-30.045c0.003-5.499-4.454-9.961-9.953-9.963
		c-0.002,0-0.003,0-0.005,0c-5.498,0-9.954,4.454-9.957,9.953l-0.015,30.065l-30.067,0.018c-5.499,0.003-9.956,4.463-9.953,9.963
		c0.003,5.5,4.461,9.953,9.959,9.953c0.002,0,0.004,0,0.006,0l30.046-0.018l-0.015,30.05c-0.003,5.499,4.454,9.959,9.953,9.962
		c0.002,0,0.003,0,0.005,0c5.498,0,9.955-4.454,9.958-9.952l0.015-30.07l30.061-0.018c5.499-0.003,9.954-4.464,9.951-9.964
		C160.034,104.529,155.576,100.075,150.079,100.075z"/>
	<path d="M288.969,246.75l-82.916-83.005c23.368-41.89,17.289-95.942-18.242-131.508C167.048,11.449,139.438,0,110.069,0
		C80.701,0,53.091,11.449,32.323,32.237c-42.863,42.911-42.863,112.729,0,155.631c20.767,20.793,48.378,32.243,77.746,32.243
		c19.095,0,37.441-4.845,53.65-13.944l82.879,82.971c5.064,5.071,11.814,7.862,19.009,7.862c7.193,0,13.945-2.791,19.01-7.862
		l4.354-4.36C299.443,274.293,299.442,257.232,288.969,246.75z M46.412,173.794c-35.108-35.143-35.107-92.332,0-127.483
		c17.006-17.02,39.612-26.395,63.657-26.395c24.045,0,46.65,9.375,63.653,26.395c35.112,35.149,35.112,92.338-0.002,127.484
		c-17.001,17.024-39.606,26.4-63.651,26.4C86.024,200.195,63.418,190.819,46.412,173.794z M274.879,270.704l-4.355,4.36
		c-1.299,1.302-3.046,2.02-4.917,2.02c-1.87,0-3.616-0.719-4.918-2.02l-80.311-80.4c2.562-2.142,5.046-4.403,7.432-6.794
		c2.393-2.394,4.643-4.878,6.768-7.429l80.301,80.384C277.553,263.502,277.553,268.025,274.879,270.704z"/>
</g>
<g>
</g>
<g>
</g>
<g>
</g>
<g>
</g>
<g>
</g>
<g>
</g>
<g>
</g>
<g>
</g>
<g>
</g>
<g>
</g>
<g>
</g>
<g>
</g>
<g>
</g>
<g>
</g>
<g>
</g>
</svg>
